<svg viewBox="0 0 64 64"
    xmlns="http://www.w3.org/2000/svg" fill="#000000">
    <g id="SVGRepo_bgCarrier" stroke-width="0"></g>
    <g id="SVGRepo_tracerCarrier" stroke-linecap="round" stroke-linejoin="round"></g>
    <g id="SVGRepo_iconCarrier">
        <defs>
            <style>.cls-1{fill:#fccb7e;}.cls-2{fill:#fdd598;}.cls-3{fill:#eabc75;}.cls-4{fill:#c73b40;}.cls-5{fill:#ffff97;}.cls-6{fill:#ffffac;}</style>
        </defs>
        <title></title>
        <g data-name="Layer 25" id="Layer_25">
            <path class="cls-1" d="M59.545,4.81A7.077,7.077,0,0,0,53,0a6.819,6.819,0,0,0-5.488,2.829A6.715,6.715,0,0,0,43,1.075a6.791,6.791,0,0,0-5.1,2.352,6.784,6.784,0,0,0-11.79,0A6.791,6.791,0,0,0,21,1.075a6.715,6.715,0,0,0-4.512,1.754A6.819,6.819,0,0,0,11,0,7.077,7.077,0,0,0,4.455,4.81,7.412,7.412,0,0,0,0,11.751a7.323,7.323,0,0,0,6.056,7.383,7.642,7.642,0,0,0,2.25,4.586,1.013,1.013,0,0,0,.83.251,1.049,1.049,0,0,0,.739-.485.98.98,0,0,0,.148-.447A5.528,5.528,0,0,1,15.5,18a5.472,5.472,0,0,1,4.653,2.579,1.04,1.04,0,0,0,1.694,0,5.487,5.487,0,0,1,9.306,0,1.04,1.04,0,0,0,1.694,0,5.487,5.487,0,0,1,9.306,0,1.04,1.04,0,0,0,1.694,0A5.472,5.472,0,0,1,48.5,18a5.528,5.528,0,0,1,5.477,5.039,1.2,1.2,0,0,0,.172.487,1,1,0,0,0,.727.466A1.032,1.032,0,0,0,55,24a1,1,0,0,0,.694-.28,7.642,7.642,0,0,0,2.25-4.586A7.323,7.323,0,0,0,64,11.751,7.412,7.412,0,0,0,59.545,4.81Z"></path>
            <path class="cls-2" d="M59.545,4.81A7.077,7.077,0,0,0,53,0a6.583,6.583,0,0,0-1,.084A7.159,7.159,0,0,1,57.545,4.81,7.412,7.412,0,0,1,62,11.751a7.323,7.323,0,0,1-6.056,7.383,7.655,7.655,0,0,1-1.9,4.179,1.362,1.362,0,0,0,.1.213,1,1,0,0,0,.727.466A1.032,1.032,0,0,0,55,24a1,1,0,0,0,.694-.28,7.642,7.642,0,0,0,2.25-4.586A7.323,7.323,0,0,0,64,11.751,7.412,7.412,0,0,0,59.545,4.81Z"></path>
            <path class="cls-3" d="M13,10H11a1,1,0,0,1,0-2h2a1,1,0,0,1,0,2Z"></path>
            <path class="cls-3" d="M33,10H31a1,1,0,0,1,0-2h2a1,1,0,0,1,0,2Z"></path>
            <path class="cls-3" d="M23,14H21a1,1,0,0,1,0-2h2a1,1,0,0,1,0,2Z"></path>
            <path class="cls-3" d="M53,10H51a1,1,0,0,1,0-2h2a1,1,0,0,1,0,2Z"></path>
            <path class="cls-3" d="M43,14H41a1,1,0,0,1,0-2h2a1,1,0,0,1,0,2Z"></path>
            <path class="cls-4" d="M22.266,19.636a1,1,0,0,0-.708-.917,1.086,1.086,0,0,0-.322-.043A7.448,7.448,0,0,0,15.5,16a7.541,7.541,0,0,0-7.47,6.875c-.016.206-.03.414-.03.625,0,.07,0,.105,4.005,39.6A1,1,0,0,0,13,64H23a1,1,0,0,0,1-1.04Z"></path>
            <path class="cls-5" d="M32.847,19.515a7.472,7.472,0,0,0-12.387-.43,1,1,0,0,0-.192.631L22,63.04A1,1,0,0,0,23,64h9a1,1,0,0,0,1-1V20.047A1.007,1.007,0,0,0,32.847,19.515Z"></path>
            <path class="cls-5" d="M55.97,22.875v0A7.539,7.539,0,0,0,48.5,16a7.448,7.448,0,0,0-5.736,2.676,1.042,1.042,0,0,0-.322.043,1,1,0,0,0-.708.917L40,62.96A1,1,0,0,0,41,64H51A1,1,0,0,0,52,63.1l4-39.5c0-.034.005-.068.005-.1C56,23.289,55.986,23.081,55.97,22.875Z"></path>
            <path class="cls-6" d="M55.97,22.875v0a7.444,7.444,0,0,0-8.477-6.8,7.541,7.541,0,0,1,6.477,6.8v0c.016.206.03.414.03.625,0,.033,0,.067-.005.1L50,63.1A1,1,0,0,1,49,64h2A1,1,0,0,0,52,63.1l4-39.5c0-.034.005-.068.005-.1C56,23.289,55.986,23.081,55.97,22.875Z"></path>
            <path class="cls-4" d="M43.54,19.085a7.472,7.472,0,0,0-12.387.43,1.007,1.007,0,0,0-.153.532V63a1,1,0,0,0,1,1h9a1,1,0,0,0,1-.96l1.733-43.324A1,1,0,0,0,43.54,19.085Z"></path>
        </g>
    </g>
</svg>